<mxfile host="app.diagrams.net" modified="2023-11-05T15:55:57.145Z" agent="Mozilla/5.0 (X11; Linux x86_64) AppleWebKit/537.36 (KHTML, like Gecko) Chrome/118.0.0.0 Safari/537.36" version="22.0.8" etag="N7XhuDFaPvo9OZdcHI62" type="github">
  <diagram name="PÃ¡gina-1" id="Vbw7-rom_uG1ua3e72bY">
    <mxGraphModel>
      <root>
        <mxCell id="0" />
        <mxCell id="1" parent="0" />
      </root>
    </mxGraphModel>
  </diagram>
</mxfile>
